{
    "asset" : {
        "generator" : "Khronos glTF Blender I/O v3.4.50",
        "version" : "2.0"
    },
    "scene" : 0,
    "scenes" : [
        {
            "name" : "Scene",
            "nodes" : [
                0,
                1,
                2
            ]
        }
    ],
    "nodes" : [
        {
            "mesh" : 0,
            "name" : "Plane",
            "rotation" : [
                0,
                0,
                -0.7071068286895752,
                0.7071068286895752
            ],
            "translation" : [
                -0.024007797241210938,
                0.377969890832901,
                0
            ]
        },
        {
            "mesh" : 1,
            "name" : "Plane.001",
            "rotation" : [
                0,
                0,
                -0.7071068286895752,
                0.7071068286895752
            ],
            "scale" : [
                2.0555806159973145,
                2.0555806159973145,
                2.0555806159973145
            ],
            "translation" : [
                0.1890788972377777,
                0.4076227843761444,
                0.0004649544134736061
            ]
        },
        {
            "mesh" : 2,
            "name" : "Plane.003",
            "rotation" : [
                0,
                0,
                -0.7071068286895752,
                0.7071068286895752
            ],
            "scale" : [
                2.0555806159973145,
                2.0555806159973145,
                2.0555806159973145
            ],
            "translation" : [
                0.18912288546562195,
                -0.005876995623111725,
                0.03012574277818203
            ]
        }
    ],
    "materials" : [
        {
            "doubleSided" : true,
            "emissiveFactor" : [
                0.0015176247106865048,
                0.0028026902582496405,
                0.01312060747295618
            ],
            "name" : "Material.001",
            "pbrMetallicRoughness" : {
                "baseColorFactor" : [
                    0.0030352494213730097,
                    0.005605380516499281,
                    0.02624121494591236,
                    1
                ],
                "roughnessFactor" : 0.1752265840768814
            }
        },
        {
            "doubleSided" : true,
            "name" : "Material.002",
            "pbrMetallicRoughness" : {
                "baseColorFactor" : [
                    0.01849960722029209,
                    0.12477145344018936,
                    0.8307695984840393,
                    1
                ],
                "metallicFactor" : 0,
                "roughnessFactor" : 0.5
            }
        },
        {
            "doubleSided" : true,
            "name" : "Material.003",
            "pbrMetallicRoughness" : {
                "baseColorFactor" : [
                    0.01849960722029209,
                    0.12477145344018936,
                    0.8307695984840393,
                    1
                ],
                "metallicFactor" : 0,
                "roughnessFactor" : 0.5
            }
        }
    ],
    "meshes" : [
        {
            "name" : "Plane",
            "primitives" : [
                {
                    "attributes" : {
                        "POSITION" : 0,
                        "TEXCOORD_0" : 1,
                        "NORMAL" : 2
                    },
                    "indices" : 3,
                    "material" : 0
                }
            ]
        },
        {
            "name" : "Plane.001",
            "primitives" : [
                {
                    "attributes" : {
                        "POSITION" : 4,
                        "TEXCOORD_0" : 5,
                        "NORMAL" : 6
                    },
                    "indices" : 7,
                    "material" : 1
                },
                {
                    "attributes" : {
                        "POSITION" : 8,
                        "TEXCOORD_0" : 9,
                        "NORMAL" : 10
                    },
                    "indices" : 11,
                    "material" : 1
                }
            ]
        },
        {
            "name" : "Plane.003",
            "primitives" : [
                {
                    "attributes" : {
                        "POSITION" : 12,
                        "TEXCOORD_0" : 13,
                        "NORMAL" : 14
                    },
                    "indices" : 15,
                    "material" : 2
                },
                {
                    "attributes" : {
                        "POSITION" : 16,
                        "TEXCOORD_0" : 17,
                        "NORMAL" : 18
                    },
                    "indices" : 19,
                    "material" : 2
                }
            ]
        }
    ],
    "accessors" : [
        {
            "bufferView" : 0,
            "componentType" : 5126,
            "count" : 80,
            "max" : [
                1,
                0.23312786221504211,
                1
            ],
            "min" : [
                -1,
                0,
                -1
            ],
            "type" : "VEC3"
        },
        {
            "bufferView" : 1,
            "componentType" : 5126,
            "count" : 80,
            "type" : "VEC2"
        },
        {
            "bufferView" : 2,
            "componentType" : 5126,
            "count" : 80,
            "type" : "VEC3"
        },
        {
            "bufferView" : 3,
            "componentType" : 5123,
            "count" : 468,
            "type" : "SCALAR"
        },
        {
            "bufferView" : 4,
            "componentType" : 5126,
            "count" : 580,
            "max" : [
                0.291176974773407,
                0.04899216443300247,
                0.30656883120536804
            ],
            "min" : [
                -0.2528740167617798,
                0,
                -0.11967355012893677
            ],
            "type" : "VEC3"
        },
        {
            "bufferView" : 5,
            "componentType" : 5126,
            "count" : 580,
            "type" : "VEC2"
        },
        {
            "bufferView" : 6,
            "componentType" : 5126,
            "count" : 580,
            "type" : "VEC3"
        },
        {
            "bufferView" : 7,
            "componentType" : 5123,
            "count" : 1710,
            "type" : "SCALAR"
        },
        {
            "bufferView" : 8,
            "componentType" : 5126,
            "count" : 68,
            "max" : [
                0.16958267986774445,
                0.04899216443300247,
                0.21400265395641327
            ],
            "min" : [
                0.11896441876888275,
                0,
                0.16338439285755157
            ],
            "type" : "VEC3"
        },
        {
            "bufferView" : 9,
            "componentType" : 5126,
            "count" : 68,
            "type" : "VEC2"
        },
        {
            "bufferView" : 10,
            "componentType" : 5126,
            "count" : 68,
            "type" : "VEC3"
        },
        {
            "bufferView" : 11,
            "componentType" : 5123,
            "count" : 198,
            "type" : "SCALAR"
        },
        {
            "bufferView" : 12,
            "componentType" : 5126,
            "count" : 394,
            "max" : [
                0.007408697623759508,
                0.04899216443300247,
                0.018090248107910156
            ],
            "min" : [
                -0.4699767529964447,
                0,
                -0.3610472083091736
            ],
            "type" : "VEC3"
        },
        {
            "bufferView" : 13,
            "componentType" : 5126,
            "count" : 394,
            "type" : "VEC2"
        },
        {
            "bufferView" : 14,
            "componentType" : 5126,
            "count" : 394,
            "type" : "VEC3"
        },
        {
            "bufferView" : 15,
            "componentType" : 5123,
            "count" : 1164,
            "type" : "SCALAR"
        },
        {
            "bufferView" : 16,
            "componentType" : 5126,
            "count" : 92,
            "max" : [
                -0.1834852695465088,
                0.04899216443300247,
                -0.14047344028949738
            ],
            "min" : [
                -0.3840152323246002,
                0,
                -0.2689500153064728
            ],
            "type" : "VEC3"
        },
        {
            "bufferView" : 17,
            "componentType" : 5126,
            "count" : 92,
            "type" : "VEC2"
        },
        {
            "bufferView" : 18,
            "componentType" : 5126,
            "count" : 92,
            "type" : "VEC3"
        },
        {
            "bufferView" : 19,
            "componentType" : 5123,
            "count" : 264,
            "type" : "SCALAR"
        }
    ],
    "bufferViews" : [
        {
            "buffer" : 0,
            "byteLength" : 960,
            "byteOffset" : 0,
            "target" : 34962
        },
        {
            "buffer" : 0,
            "byteLength" : 640,
            "byteOffset" : 960,
            "target" : 34962
        },
        {
            "buffer" : 0,
            "byteLength" : 960,
            "byteOffset" : 1600,
            "target" : 34962
        },
        {
            "buffer" : 0,
            "byteLength" : 936,
            "byteOffset" : 2560,
            "target" : 34963
        },
        {
            "buffer" : 0,
            "byteLength" : 6960,
            "byteOffset" : 3496,
            "target" : 34962
        },
        {
            "buffer" : 0,
            "byteLength" : 4640,
            "byteOffset" : 10456,
            "target" : 34962
        },
        {
            "buffer" : 0,
            "byteLength" : 6960,
            "byteOffset" : 15096,
            "target" : 34962
        },
        {
            "buffer" : 0,
            "byteLength" : 3420,
            "byteOffset" : 22056,
            "target" : 34963
        },
        {
            "buffer" : 0,
            "byteLength" : 816,
            "byteOffset" : 25476,
            "target" : 34962
        },
        {
            "buffer" : 0,
            "byteLength" : 544,
            "byteOffset" : 26292,
            "target" : 34962
        },
        {
            "buffer" : 0,
            "byteLength" : 816,
            "byteOffset" : 26836,
            "target" : 34962
        },
        {
            "buffer" : 0,
            "byteLength" : 396,
            "byteOffset" : 27652,
            "target" : 34963
        },
        {
            "buffer" : 0,
            "byteLength" : 4728,
            "byteOffset" : 28048,
            "target" : 34962
        },
        {
            "buffer" : 0,
            "byteLength" : 3152,
            "byteOffset" : 32776,
            "target" : 34962
        },
        {
            "buffer" : 0,
            "byteLength" : 4728,
            "byteOffset" : 35928,
            "target" : 34962
        },
        {
            "buffer" : 0,
            "byteLength" : 2328,
            "byteOffset" : 40656,
            "target" : 34963
        },
        {
            "buffer" : 0,
            "byteLength" : 1104,
            "byteOffset" : 42984,
            "target" : 34962
        },
        {
            "buffer" : 0,
            "byteLength" : 736,
            "byteOffset" : 44088,
            "target" : 34962
        },
        {
            "buffer" : 0,
            "byteLength" : 1104,
            "byteOffset" : 44824,
            "target" : 34962
        },
        {
            "buffer" : 0,
            "byteLength" : 528,
            "byteOffset" : 45928,
            "target" : 34963
        }
    ],
    "buffers" : [
        {
            "byteLength" : 46456,
            "uri" : "data:application/octet-stream;base64,"
        }
    ]
}
