<svg width="76" height="65" viewBox="0 0 76 65" fill="none" xmlns="http://www.w3.org/2000/svg">
<path fill-rule="evenodd" clip-rule="evenodd" d="M25.7885 0L24.6436 9.67408C22.2432 10.5921 20.017 11.8624 18.0284 13.4217L8 9.73205L0 23.5885L8.47913 30.0669C8.32802 31.1897 8.25 32.3358 8.25 33.5C8.25 34.5979 8.3194 35.6796 8.45401 36.7409L0.315872 43.5214L8.31587 57.3778L17.824 53.4163C19.6179 54.8527 21.6101 56.0517 23.753 56.9658C27.278 52.4351 30.6892 48.8367 34.2554 45.99C34.0878 45.9966 33.9193 46 33.75 46C26.8464 46 21.25 40.4036 21.25 33.5C21.25 26.5964 26.8464 21 33.75 21C40.6536 21 46.25 26.5964 46.25 33.5C46.25 35.8862 45.5814 38.1163 44.4212 40.013C48.746 38.2626 53.5205 37.1808 59.0696 36.5494C59.1887 35.5495 59.25 34.5319 59.25 33.5C59.25 32.4362 59.1849 31.3875 59.0583 30.3579L67.4827 23.544L59.2776 9.33234L49.5732 13.5018C47.8166 12.11 45.8723 10.9448 43.7845 10.0502L42.1987 0H25.7885Z" fill="url(#paint0_linear_9_3)"/>
<path d="M34.1176 60.216C33.6696 60.216 33.3016 60.112 33.0136 59.904C32.7416 59.696 32.5656 59.416 32.4856 59.064C32.4216 58.712 32.4936 58.32 32.7016 57.888L38.8456 44.424C39.1016 43.88 39.4056 43.488 39.7576 43.248C40.1096 42.992 40.5176 42.864 40.9816 42.864C41.4456 42.864 41.8536 42.992 42.2056 43.248C42.5576 43.488 42.8536 43.88 43.0936 44.424L49.2856 57.888C49.4936 58.32 49.5656 58.72 49.5016 59.088C49.4536 59.44 49.2936 59.72 49.0216 59.928C48.7496 60.12 48.3976 60.216 47.9656 60.216C47.4216 60.216 46.9976 60.088 46.6936 59.832C46.4056 59.576 46.1496 59.176 45.9256 58.632L44.4856 55.296L45.9736 56.328H35.9656L37.4536 55.296L36.0376 58.632C35.7976 59.192 35.5416 59.6 35.2696 59.856C35.0136 60.096 34.6296 60.216 34.1176 60.216ZM40.9336 47.04L37.8616 54.36L37.2136 53.424H44.7256L44.0776 54.36L40.9816 47.04H40.9336ZM53.5799 60.216C52.9719 60.216 52.5079 60.048 52.1879 59.712C51.8679 59.376 51.7079 58.904 51.7079 58.296V44.976C51.7079 44.352 51.8679 43.88 52.1879 43.56C52.5239 43.24 52.9959 43.08 53.6039 43.08H59.4359C61.3239 43.08 62.7799 43.56 63.8039 44.52C64.8279 45.464 65.3399 46.784 65.3399 48.48C65.3399 50.176 64.8279 51.504 63.8039 52.464C62.7799 53.424 61.3239 53.904 59.4359 53.904H55.4279V58.296C55.4279 58.904 55.2679 59.376 54.9479 59.712C54.6439 60.048 54.1879 60.216 53.5799 60.216ZM55.4279 51.024H58.8119C59.7719 51.024 60.4999 50.808 60.9959 50.376C61.5079 49.944 61.7639 49.312 61.7639 48.48C61.7639 47.648 61.5079 47.024 60.9959 46.608C60.4999 46.192 59.7719 45.984 58.8119 45.984H55.4279V51.024ZM69.5174 60.216C68.9094 60.216 68.4454 60.048 68.1254 59.712C67.8054 59.376 67.6454 58.904 67.6454 58.296V44.784C67.6454 44.176 67.8054 43.704 68.1254 43.368C68.4454 43.032 68.9094 42.864 69.5174 42.864C70.1094 42.864 70.5654 43.032 70.8854 43.368C71.2054 43.704 71.3654 44.176 71.3654 44.784V58.296C71.3654 58.904 71.2054 59.376 70.8854 59.712C70.5814 60.048 70.1254 60.216 69.5174 60.216Z" fill="white"/>
<defs>
<linearGradient id="paint0_linear_9_3" x1="57.4673" y1="0" x2="57.4673" y2="68" gradientUnits="userSpaceOnUse">
<stop stop-color="#00FFFF"/>
<stop offset="1" stop-color="#2563EB"/>
</linearGradient>
</defs>
</svg>
