<svg width="378" height="251" viewBox="0 0 378 251" fill="none" xmlns="http://www.w3.org/2000/svg">
<path d="M167.942 138.159C165.426 138.159 162.836 137.838 160.172 137.197C157.508 136.556 155.066 135.594 152.846 134.311C151.711 133.67 150.922 132.88 150.478 131.943C150.083 131.006 149.96 130.044 150.108 129.057C150.305 128.07 150.7 127.232 151.292 126.541C151.933 125.801 152.723 125.332 153.66 125.135C154.647 124.938 155.732 125.16 156.916 125.801C158.643 126.689 160.394 127.38 162.17 127.873C163.995 128.366 165.845 128.613 167.72 128.613C169.595 128.613 171.198 128.292 172.53 127.651C173.862 127.01 174.873 126.122 175.564 124.987C176.255 123.852 176.6 122.52 176.6 120.991C176.6 118.623 175.835 116.724 174.306 115.293C172.826 113.862 170.803 113.147 168.238 113.147C166.955 113.147 165.648 113.369 164.316 113.813C163.033 114.208 161.701 114.923 160.32 115.959C159.827 116.354 159.185 116.724 158.396 117.069C157.607 117.414 156.768 117.587 155.88 117.587C154.351 117.587 153.216 117.242 152.476 116.551C151.736 115.811 151.366 114.75 151.366 113.369V90.1328C151.366 88.5048 151.785 87.2715 152.624 86.4328C153.512 85.5942 154.745 85.1748 156.324 85.1748H180.078C181.706 85.1748 182.939 85.5942 183.778 86.4328C184.617 87.2222 185.036 88.3815 185.036 89.9108C185.036 91.3908 184.617 92.5502 183.778 93.3888C182.939 94.1782 181.706 94.5728 180.078 94.5728H162.392V108.707H159.58C160.813 107.178 162.441 105.994 164.464 105.155C166.487 104.316 168.707 103.897 171.124 103.897C174.429 103.897 177.315 104.612 179.782 106.043C182.249 107.424 184.173 109.373 185.554 111.889C186.935 114.405 187.626 117.316 187.626 120.621C187.626 124.074 186.837 127.133 185.258 129.797C183.679 132.412 181.41 134.459 178.45 135.939C175.49 137.419 171.987 138.159 167.942 138.159ZM201.213 145.781C200.473 146.669 199.684 147.162 198.845 147.261C198.006 147.409 197.291 147.261 196.699 146.817C196.107 146.373 195.762 145.732 195.663 144.893C195.614 144.104 195.984 143.24 196.773 142.303C197.858 140.922 198.598 139.565 198.993 138.233C199.388 136.901 199.585 135.717 199.585 134.681L199.955 137.715C197.982 137.715 196.378 137.148 195.145 136.013C193.912 134.878 193.295 133.324 193.295 131.351C193.295 129.526 193.862 128.046 194.997 126.911C196.132 125.727 197.686 125.135 199.659 125.135C201.682 125.135 203.26 125.826 204.395 127.207C205.53 128.539 206.097 130.438 206.097 132.905C206.097 134.188 205.974 135.495 205.727 136.827C205.48 138.159 205.012 139.565 204.321 141.045C203.63 142.525 202.594 144.104 201.213 145.781ZM227.17 138.159C225.048 138.159 222.902 137.863 220.732 137.271C218.561 136.679 216.538 135.791 214.664 134.607C213.677 134.114 212.986 133.423 212.592 132.535C212.246 131.598 212.148 130.66 212.296 129.723C212.444 128.786 212.814 127.972 213.406 127.281C213.998 126.541 214.738 126.072 215.626 125.875C216.563 125.628 217.624 125.776 218.808 126.319C220.337 127.158 221.792 127.75 223.174 128.095C224.604 128.44 225.986 128.613 227.318 128.613C229.932 128.613 232.152 128.021 233.978 126.837C235.803 125.653 237.16 123.877 238.048 121.509C238.985 119.092 239.454 116.156 239.454 112.703V107.893H240.49C240.095 110.212 239.281 112.21 238.048 113.887C236.814 115.564 235.26 116.847 233.386 117.735C231.511 118.623 229.439 119.067 227.17 119.067C224.259 119.067 221.644 118.352 219.326 116.921C217.007 115.441 215.182 113.418 213.85 110.853C212.518 108.288 211.852 105.402 211.852 102.195C211.852 98.7415 212.592 95.6828 214.072 93.0188C215.552 90.3055 217.624 88.1842 220.288 86.6548C222.952 85.1255 226.01 84.3608 229.464 84.3608C233.953 84.3608 237.727 85.3968 240.786 87.4688C243.894 89.4915 246.262 92.4762 247.89 96.4228C249.518 100.32 250.332 105.032 250.332 110.557C250.332 114.948 249.789 118.845 248.704 122.249C247.668 125.653 246.163 128.539 244.19 130.907C242.216 133.275 239.774 135.076 236.864 136.309C234.002 137.542 230.771 138.159 227.17 138.159ZM230.13 110.113C231.659 110.113 232.991 109.768 234.126 109.077C235.31 108.337 236.222 107.326 236.864 106.043C237.505 104.76 237.826 103.305 237.826 101.677C237.826 99.9995 237.505 98.5195 236.864 97.2368C236.222 95.9542 235.31 94.9675 234.126 94.2768C232.991 93.5862 231.659 93.2408 230.13 93.2408C228.6 93.2408 227.268 93.5862 226.134 94.2768C224.999 94.9675 224.086 95.9542 223.396 97.2368C222.754 98.5195 222.434 99.9995 222.434 101.677C222.434 103.305 222.754 104.76 223.396 106.043C224.086 107.326 224.999 108.337 226.134 109.077C227.268 109.768 228.6 110.113 230.13 110.113ZM277.831 138.159C273.391 138.159 269.617 137.123 266.509 135.051C263.401 132.979 261.033 129.994 259.405 126.097C257.777 122.2 256.963 117.488 256.963 111.963C256.963 107.572 257.481 103.675 258.517 100.271C259.602 96.8668 261.131 93.9808 263.105 91.6128C265.078 89.2448 267.495 87.4442 270.357 86.2108C273.267 84.9775 276.523 84.3608 280.125 84.3608C282.246 84.3608 284.392 84.6568 286.563 85.2488C288.733 85.8408 290.756 86.7288 292.631 87.9128C293.617 88.4062 294.283 89.1215 294.629 90.0588C295.023 90.9468 295.147 91.8595 294.999 92.7968C294.851 93.7342 294.481 94.5728 293.889 95.3128C293.297 96.0035 292.532 96.4722 291.595 96.7188C290.707 96.9162 289.671 96.7435 288.487 96.2008C286.957 95.3622 285.477 94.7702 284.047 94.4248C282.665 94.0795 281.309 93.9068 279.977 93.9068C277.362 93.9068 275.142 94.4988 273.317 95.6828C271.491 96.8668 270.11 98.6428 269.173 101.011C268.285 103.379 267.841 106.314 267.841 109.817V114.627H266.805C267.249 112.259 268.063 110.261 269.247 108.633C270.48 106.956 272.034 105.673 273.909 104.785C275.783 103.897 277.855 103.453 280.125 103.453C283.085 103.453 285.699 104.193 287.969 105.673C290.287 107.104 292.113 109.102 293.445 111.667C294.777 114.183 295.443 117.069 295.443 120.325C295.443 123.778 294.703 126.862 293.223 129.575C291.743 132.239 289.671 134.336 287.007 135.865C284.392 137.394 281.333 138.159 277.831 138.159ZM277.239 129.205C278.768 129.205 280.1 128.86 281.235 128.169C282.419 127.478 283.307 126.492 283.899 125.209C284.54 123.926 284.861 122.446 284.861 120.769C284.861 119.092 284.54 117.636 283.899 116.403C283.307 115.12 282.419 114.134 281.235 113.443C280.1 112.703 278.768 112.333 277.239 112.333C275.709 112.333 274.353 112.703 273.169 113.443C272.034 114.134 271.146 115.12 270.505 116.403C269.863 117.636 269.543 119.092 269.543 120.769C269.543 122.446 269.863 123.926 270.505 125.209C271.146 126.492 272.034 127.478 273.169 128.169C274.353 128.86 275.709 129.205 277.239 129.205ZM320.204 138.159C316.06 138.159 312.508 137.567 309.548 136.383C306.588 135.199 304.319 133.497 302.74 131.277C301.161 129.008 300.372 126.294 300.372 123.137C300.372 120.67 300.865 118.475 301.852 116.551C302.888 114.627 304.294 113.073 306.07 111.889C307.846 110.705 309.844 109.965 312.064 109.669V111.593C308.956 110.902 306.44 109.398 304.516 107.079C302.641 104.711 301.704 101.874 301.704 98.5688C301.704 95.6088 302.444 93.0682 303.924 90.9468C305.453 88.8255 307.599 87.1975 310.362 86.0628C313.174 84.9282 316.455 84.3608 320.204 84.3608C324.003 84.3608 327.283 84.9282 330.046 86.0628C332.809 87.1975 334.955 88.8255 336.484 90.9468C338.013 93.0682 338.778 95.6088 338.778 98.5688C338.778 100.789 338.334 102.812 337.446 104.637C336.607 106.462 335.399 107.967 333.82 109.151C332.291 110.335 330.515 111.1 328.492 111.445V109.669C331.896 110.162 334.659 111.618 336.78 114.035C338.951 116.452 340.036 119.486 340.036 123.137C340.036 126.294 339.247 129.008 337.668 131.277C336.089 133.497 333.82 135.199 330.86 136.383C327.9 137.567 324.348 138.159 320.204 138.159ZM320.204 129.353C323.263 129.353 325.581 128.761 327.16 127.577C328.739 126.393 329.528 124.642 329.528 122.323C329.528 120.004 328.739 118.278 327.16 117.143C325.581 115.959 323.263 115.367 320.204 115.367C317.145 115.367 314.827 115.959 313.248 117.143C311.669 118.278 310.88 120.004 310.88 122.323C310.88 124.642 311.669 126.393 313.248 127.577C314.827 128.761 317.145 129.353 320.204 129.353ZM320.204 106.561C321.881 106.561 323.312 106.29 324.496 105.747C325.729 105.204 326.642 104.415 327.234 103.379C327.875 102.343 328.196 101.159 328.196 99.8268C328.196 97.7548 327.481 96.1268 326.05 94.9428C324.669 93.7588 322.72 93.1668 320.204 93.1668C317.688 93.1668 315.739 93.7588 314.358 94.9428C312.977 96.1268 312.286 97.7548 312.286 99.8268C312.286 101.899 312.977 103.552 314.358 104.785C315.739 105.969 317.688 106.561 320.204 106.561Z" fill="white"/>
<path d="M125.207 37.4882H10.3461V114.062H125.207V189.655H10.3461" stroke="url(#paint0_linear_185_2)" stroke-width="19" stroke-linecap="round" stroke-linejoin="round"/>
<path d="M86.0195 220.804H48.1829L68.4525 247.155L86.0195 220.804Z" fill="#EB2525" stroke="#EB2525" stroke-width="6" stroke-linecap="round" stroke-linejoin="round"/>
<path d="M67.286 10V112.59V215.18" stroke="url(#paint1_linear_185_2)" stroke-width="19" stroke-linecap="round" stroke-linejoin="round"/>
<defs>
<linearGradient id="paint0_linear_185_2" x1="67.7768" y1="37.4882" x2="67.7768" y2="189.655" gradientUnits="userSpaceOnUse">
<stop stop-color="#00FFFF"/>
<stop offset="1" stop-color="#2563EB"/>
</linearGradient>
<linearGradient id="paint1_linear_185_2" x1="67.786" y1="10" x2="67.786" y2="215.18" gradientUnits="userSpaceOnUse">
<stop stop-color="#00FFFF"/>
<stop offset="0.56069" stop-color="#2563EB"/>
<stop offset="1" stop-color="#EB2525"/>
</linearGradient>
</defs>
</svg>
