<svg width="357" height="248" viewBox="0 0 357 248" fill="none" xmlns="http://www.w3.org/2000/svg">
<path d="M116.205 22.952C129.655 15.9672 144.349 11.7 159.448 10.394C174.547 9.08802 189.756 10.7688 204.206 15.3405C218.655 19.9122 232.063 27.2852 243.663 37.0385C255.264 46.7918 264.829 58.7345 271.814 72.1846" stroke="url(#paint0_linear_50_29)" stroke-width="19" stroke-linecap="round"/>
<path d="M145.08 238.191C124.876 233.837 106.211 224.137 91.037 210.104C75.8625 196.072 64.735 178.221 58.8169 158.418" stroke="url(#paint1_linear_50_29)" stroke-width="19" stroke-linecap="round"/>
<path d="M10.5948 123.318C8.76948 123.318 7.41281 122.899 6.52481 122.06C5.68615 121.172 5.26681 119.889 5.26681 118.212C5.26681 117.127 5.53815 116.115 6.08081 115.178C6.62348 114.241 7.36348 113.279 8.30081 112.292L22.2128 97.6401C24.2848 95.4201 25.7648 93.4467 26.6528 91.7201C27.5901 89.9934 28.0588 88.2667 28.0588 86.5401C28.0588 84.3694 27.3435 82.7167 25.9128 81.5821C24.5315 80.4474 22.5088 79.8801 19.8448 79.8801C18.4141 79.8801 16.9341 80.1021 15.4048 80.5461C13.9248 80.9407 12.3708 81.6067 10.7428 82.5441C9.65748 83.1361 8.64615 83.3581 7.70881 83.2101C6.82081 83.0127 6.05615 82.5934 5.41481 81.9521C4.77348 81.2614 4.35415 80.4474 4.15681 79.5101C3.95948 78.5727 4.05815 77.6354 4.45281 76.6981C4.84748 75.7607 5.58748 74.9714 6.67281 74.33C8.84348 72.9981 11.2115 72.0114 13.7768 71.3701C16.3421 70.6794 18.8828 70.3341 21.3988 70.3341C25.2961 70.3341 28.5768 70.9261 31.2408 72.1101C33.9048 73.2447 35.9275 74.9221 37.3088 77.1421C38.6901 79.3621 39.3808 82.0754 39.3808 85.2821C39.3808 87.3541 39.0601 89.3767 38.4188 91.3501C37.7775 93.3234 36.7661 95.3214 35.3848 97.3441C34.0528 99.3174 32.2768 101.439 30.0568 103.708L17.1068 116.88V113.92H37.1608C38.7395 113.92 39.9235 114.315 40.7128 115.104C41.5515 115.893 41.9708 117.053 41.9708 118.582C41.9708 120.111 41.5515 121.295 40.7128 122.134C39.9235 122.923 38.7395 123.318 37.1608 123.318H10.5948ZM67.0279 124.132C64.5119 124.132 61.9219 123.811 59.2579 123.17C56.5939 122.529 54.1519 121.567 51.9319 120.284C50.7972 119.643 50.0079 118.853 49.5639 117.916C49.1692 116.979 49.0459 116.017 49.1939 115.03C49.3912 114.043 49.7859 113.205 50.3779 112.514C51.0192 111.774 51.8086 111.305 52.7459 111.108C53.7326 110.911 54.8179 111.133 56.0019 111.774C57.7286 112.662 59.4799 113.353 61.2559 113.846C63.0812 114.339 64.9312 114.586 66.8059 114.586C68.6806 114.586 70.2839 114.265 71.6159 113.624C72.9479 112.983 73.9592 112.095 74.6499 110.96C75.3406 109.825 75.6859 108.493 75.6859 106.964C75.6859 104.596 74.9212 102.697 73.3919 101.266C71.9119 99.8354 69.8892 99.1201 67.3239 99.1201C66.0412 99.1201 64.7339 99.3421 63.4019 99.7861C62.1192 100.181 60.7872 100.896 59.4059 101.932C58.9126 102.327 58.2712 102.697 57.4819 103.042C56.6926 103.387 55.8539 103.56 54.9659 103.56C53.4366 103.56 52.3019 103.215 51.5619 102.524C50.8219 101.784 50.4519 100.723 50.4519 99.3421V76.1061C50.4519 74.4781 50.8712 73.2447 51.7099 72.4061C52.5979 71.5674 53.8312 71.1481 55.4099 71.1481H79.1639C80.7919 71.1481 82.0252 71.5674 82.8639 72.4061C83.7026 73.1954 84.1219 74.3547 84.1219 75.8841C84.1219 77.3641 83.7026 78.5234 82.8639 79.3621C82.0252 80.1514 80.7919 80.5461 79.1639 80.5461H61.4779V94.6801H58.6659C59.8992 93.1507 61.5272 91.9667 63.5499 91.1281C65.5726 90.2894 67.7926 89.8701 70.2099 89.8701C73.5152 89.8701 76.4012 90.5854 78.8679 92.0161C81.3346 93.3974 83.2586 95.3461 84.6399 97.8621C86.0212 100.378 86.7119 103.289 86.7119 106.594C86.7119 110.047 85.9226 113.106 84.3439 115.77C82.7652 118.385 80.4959 120.432 77.5359 121.912C74.5759 123.392 71.0732 124.132 67.0279 124.132ZM114.729 122.356C114.137 123.343 113.422 123.984 112.583 124.28C111.744 124.625 110.906 124.699 110.067 124.502C109.228 124.305 108.513 123.91 107.921 123.318C107.378 122.677 107.033 121.912 106.885 121.024C106.737 120.136 106.959 119.199 107.551 118.212L134.117 72.1841C134.709 71.1481 135.424 70.4574 136.263 70.1121C137.102 69.7667 137.916 69.7174 138.705 69.9641C139.544 70.1614 140.259 70.5807 140.851 71.2221C141.443 71.8141 141.813 72.5541 141.961 73.4421C142.109 74.3301 141.887 75.2674 141.295 76.2541L114.729 122.356ZM105.405 102.228C101.113 102.228 97.783 100.797 95.415 97.9361C93.047 95.0254 91.863 91.1281 91.863 86.2441C91.863 82.9387 92.381 80.1021 93.417 77.7341C94.5023 75.3661 96.0563 73.5407 98.079 72.258C100.151 70.9754 102.593 70.3341 105.405 70.3341C109.648 70.3341 112.953 71.7894 115.321 74.7001C117.738 77.5614 118.947 81.4094 118.947 86.2441C118.947 89.5001 118.404 92.3367 117.319 94.7541C116.283 97.1221 114.754 98.9721 112.731 100.304C110.708 101.587 108.266 102.228 105.405 102.228ZM105.405 95.1241C106.392 95.1241 107.206 94.8281 107.847 94.2361C108.538 93.5947 109.056 92.6327 109.401 91.3501C109.796 90.0181 109.993 88.3161 109.993 86.2441C109.993 83.1361 109.574 80.9161 108.735 79.5841C107.946 78.2027 106.836 77.5121 105.405 77.5121C104.418 77.5121 103.58 77.8081 102.889 78.4001C102.198 78.9921 101.68 79.9294 101.335 81.2121C100.99 82.4454 100.817 84.1227 100.817 86.2441C100.817 89.4014 101.212 91.6707 102.001 93.0521C102.79 94.4334 103.925 95.1241 105.405 95.1241ZM143.515 124.132C139.223 124.132 135.893 122.677 133.525 119.766C131.157 116.855 129.973 112.958 129.973 108.074C129.973 104.818 130.516 102.006 131.601 99.6381C132.686 97.2701 134.24 95.4447 136.263 94.1621C138.286 92.8794 140.703 92.2381 143.515 92.2381C147.758 92.2381 151.063 93.6687 153.431 96.5301C155.848 99.3914 157.057 103.239 157.057 108.074C157.057 111.33 156.514 114.167 155.429 116.584C154.393 119.001 152.864 120.876 150.841 122.208C148.818 123.491 146.376 124.132 143.515 124.132ZM143.515 116.954C144.502 116.954 145.316 116.658 145.957 116.066C146.648 115.474 147.166 114.512 147.511 113.18C147.906 111.848 148.103 110.146 148.103 108.074C148.103 104.966 147.684 102.746 146.845 101.414C146.056 100.033 144.946 99.3421 143.515 99.3421C142.528 99.3421 141.69 99.6381 140.999 100.23C140.358 100.822 139.84 101.759 139.445 103.042C139.1 104.325 138.927 106.002 138.927 108.074C138.927 111.281 139.322 113.575 140.111 114.956C140.9 116.288 142.035 116.954 143.515 116.954Z" fill="white"/>
<path d="M190.309 203.174C188.731 203.174 187.522 202.755 186.683 201.916C185.845 201.077 185.425 199.918 185.425 198.438C185.425 196.909 185.845 195.749 186.683 194.96C187.522 194.171 188.731 193.776 190.309 193.776H197.783V160.402H203.185L192.381 166.988C191.247 167.679 190.186 167.95 189.199 167.802C188.262 167.654 187.448 167.235 186.757 166.544C186.067 165.853 185.598 165.039 185.351 164.102C185.154 163.115 185.253 162.153 185.647 161.216C186.042 160.229 186.782 159.391 187.867 158.7L198.153 152.484C199.189 151.843 200.225 151.325 201.261 150.93C202.347 150.535 203.407 150.338 204.443 150.338C205.923 150.338 207.083 150.733 207.921 151.522C208.809 152.262 209.253 153.421 209.253 155V193.776H215.987C217.517 193.776 218.701 194.171 219.539 194.96C220.378 195.749 220.797 196.909 220.797 198.438C220.797 199.967 220.378 201.151 219.539 201.99C218.701 202.779 217.517 203.174 215.987 203.174H190.309ZM236.013 203.84C234.582 203.84 233.423 203.519 232.535 202.878C231.647 202.187 231.129 201.299 230.981 200.214C230.833 199.129 231.129 197.92 231.869 196.588L253.255 156.924V160.476H230.907C229.279 160.476 228.045 160.081 227.207 159.292C226.368 158.453 225.949 157.269 225.949 155.74C225.949 154.211 226.368 153.051 227.207 152.262C228.045 151.423 229.279 151.004 230.907 151.004H259.101C260.679 151.004 261.962 151.423 262.949 152.262C263.985 153.101 264.503 154.285 264.503 155.814C264.503 157.146 264.305 158.305 263.911 159.292C263.565 160.279 263.097 161.339 262.505 162.474L242.525 200.14C241.834 201.423 240.971 202.36 239.935 202.952C238.899 203.544 237.591 203.84 236.013 203.84ZM293.038 202.212C292.446 203.199 291.73 203.84 290.892 204.136C290.053 204.481 289.214 204.555 288.376 204.358C287.537 204.161 286.822 203.766 286.23 203.174C285.687 202.533 285.342 201.768 285.194 200.88C285.046 199.992 285.268 199.055 285.86 198.068L312.426 152.04C313.018 151.004 313.733 150.313 314.572 149.968C315.41 149.623 316.224 149.573 317.014 149.82C317.852 150.017 318.568 150.437 319.16 151.078C319.752 151.67 320.122 152.41 320.27 153.298C320.418 154.186 320.196 155.123 319.604 156.11L293.038 202.212ZM283.714 182.084C279.422 182.084 276.092 180.653 273.724 177.792C271.356 174.881 270.172 170.984 270.172 166.1C270.172 162.795 270.69 159.958 271.726 157.59C272.811 155.222 274.365 153.397 276.388 152.114C278.46 150.831 280.902 150.19 283.714 150.19C287.956 150.19 291.262 151.645 293.63 154.556C296.047 157.417 297.256 161.265 297.256 166.1C297.256 169.356 296.713 172.193 295.628 174.61C294.592 176.978 293.062 178.828 291.04 180.16C289.017 181.443 286.575 182.084 283.714 182.084ZM283.714 174.98C284.7 174.98 285.514 174.684 286.156 174.092C286.846 173.451 287.364 172.489 287.71 171.206C288.104 169.874 288.302 168.172 288.302 166.1C288.302 162.992 287.882 160.772 287.044 159.44C286.254 158.059 285.144 157.368 283.714 157.368C282.727 157.368 281.888 157.664 281.198 158.256C280.507 158.848 279.989 159.785 279.644 161.068C279.298 162.301 279.126 163.979 279.126 166.1C279.126 169.257 279.52 171.527 280.31 172.908C281.099 174.289 282.234 174.98 283.714 174.98ZM321.824 203.988C317.532 203.988 314.202 202.533 311.834 199.622C309.466 196.711 308.282 192.814 308.282 187.93C308.282 184.674 308.824 181.862 309.91 179.494C310.995 177.126 312.549 175.301 314.572 174.018C316.594 172.735 319.012 172.094 321.824 172.094C326.066 172.094 329.372 173.525 331.74 176.386C334.157 179.247 335.366 183.095 335.366 187.93C335.366 191.186 334.823 194.023 333.738 196.44C332.702 198.857 331.172 200.732 329.15 202.064C327.127 203.347 324.685 203.988 321.824 203.988ZM321.824 196.81C322.81 196.81 323.624 196.514 324.266 195.922C324.956 195.33 325.474 194.368 325.82 193.036C326.214 191.704 326.412 190.002 326.412 187.93C326.412 184.822 325.992 182.602 325.154 181.27C324.364 179.889 323.254 179.198 321.824 179.198C320.837 179.198 319.998 179.494 319.308 180.086C318.666 180.678 318.148 181.615 317.754 182.898C317.408 184.181 317.236 185.858 317.236 187.93C317.236 191.137 317.63 193.431 318.42 194.812C319.209 196.144 320.344 196.81 321.824 196.81Z" fill="white"/>
<defs>
<linearGradient id="paint0_linear_50_29" x1="169.393" y1="9.96472" x2="169.393" y2="240.781" gradientUnits="userSpaceOnUse">
<stop stop-color="#00FFFF"/>
<stop offset="1" stop-color="#2563EB"/>
</linearGradient>
<linearGradient id="paint1_linear_50_29" x1="169.393" y1="9.96472" x2="169.393" y2="240.781" gradientUnits="userSpaceOnUse">
<stop stop-color="#00FFFF"/>
<stop offset="1" stop-color="#2563EB"/>
</linearGradient>
</defs>
</svg>
