<svg width="285" height="251" viewBox="0 0 285 251" fill="none" xmlns="http://www.w3.org/2000/svg">
<path d="M125.5 10C104.214 10 83.342 15.8823 65.1885 26.9973C47.035 38.1124 32.3062 54.0279 22.6283 72.9866C12.9503 91.9453 8.69978 113.21 10.3459 134.432C11.992 155.654 19.4707 176.009 31.9564 193.248C44.442 210.488 61.4489 223.942 81.0992 232.125C100.75 240.307 122.279 242.901 143.31 239.619C164.342 236.336 184.057 227.306 200.279 213.524C216.502 199.743 228.6 181.747 235.239 161.522" stroke="url(#paint0_linear_185_3)" stroke-width="19" stroke-linecap="round"/>
<path d="M118.95 124.666C117.519 124.666 116.36 124.345 115.472 123.704C114.584 123.013 114.066 122.125 113.918 121.04C113.77 119.955 114.066 118.746 114.806 117.414L136.192 77.75V81.302H113.844C112.216 81.302 110.983 80.9073 110.144 80.118C109.305 79.2793 108.886 78.0953 108.886 76.566C108.886 75.0367 109.305 73.8773 110.144 73.088C110.983 72.2493 112.216 71.83 113.844 71.83H142.038C143.617 71.83 144.899 72.2493 145.886 73.088C146.922 73.9267 147.44 75.1107 147.44 76.64C147.44 77.972 147.243 79.1313 146.848 80.118C146.503 81.1047 146.034 82.1653 145.442 83.3L125.462 120.966C124.771 122.249 123.908 123.186 122.872 123.778C121.836 124.37 120.529 124.666 118.95 124.666ZM172.571 124.814C166.256 124.814 161.422 122.471 158.067 117.784C154.762 113.048 153.109 106.363 153.109 97.73C153.109 91.958 153.849 87.0987 155.329 83.152C156.858 79.156 159.054 76.1467 161.915 74.124C164.826 72.052 168.378 71.016 172.571 71.016C178.935 71.016 183.77 73.31 187.075 77.898C190.38 82.4367 192.033 89.0473 192.033 97.73C192.033 103.502 191.268 108.411 189.739 112.456C188.259 116.452 186.088 119.511 183.227 121.632C180.366 123.753 176.814 124.814 172.571 124.814ZM172.571 115.49C175.432 115.49 177.554 114.084 178.935 111.272C180.316 108.411 181.007 103.897 181.007 97.73C181.007 91.5633 180.316 87.1233 178.935 84.41C177.554 81.6967 175.432 80.34 172.571 80.34C169.71 80.34 167.588 81.6967 166.207 84.41C164.826 87.1233 164.135 91.5633 164.135 97.73C164.135 103.897 164.826 108.411 166.207 111.272C167.588 114.084 169.71 115.49 172.571 115.49ZM220.346 123.038C219.754 124.025 219.039 124.666 218.2 124.962C217.362 125.307 216.523 125.381 215.684 125.184C214.846 124.987 214.13 124.592 213.538 124C212.996 123.359 212.65 122.594 212.502 121.706C212.354 120.818 212.576 119.881 213.168 118.894L239.734 72.866C240.326 71.83 241.042 71.1393 241.88 70.794C242.719 70.4487 243.533 70.3993 244.322 70.646C245.161 70.8433 245.876 71.2627 246.468 71.904C247.06 72.496 247.43 73.236 247.578 74.124C247.726 75.012 247.504 75.9493 246.912 76.936L220.346 123.038ZM211.022 102.91C206.73 102.91 203.4 101.479 201.032 98.618C198.664 95.7073 197.48 91.81 197.48 86.926C197.48 83.6207 197.998 80.784 199.034 78.416C200.12 76.048 201.674 74.2227 203.696 72.94C205.768 71.6573 208.21 71.016 211.022 71.016C215.265 71.016 218.57 72.4713 220.938 75.382C223.356 78.2433 224.564 82.0913 224.564 86.926C224.564 90.182 224.022 93.0187 222.936 95.436C221.9 97.804 220.371 99.654 218.348 100.986C216.326 102.269 213.884 102.91 211.022 102.91ZM211.022 95.806C212.009 95.806 212.823 95.51 213.464 94.918C214.155 94.2767 214.673 93.3147 215.018 92.032C215.413 90.7 215.61 88.998 215.61 86.926C215.61 83.818 215.191 81.598 214.352 80.266C213.563 78.8847 212.453 78.194 211.022 78.194C210.036 78.194 209.197 78.49 208.506 79.082C207.816 79.674 207.298 80.6113 206.952 81.894C206.607 83.1273 206.434 84.8047 206.434 86.926C206.434 90.0833 206.829 92.3527 207.618 93.734C208.408 95.1153 209.542 95.806 211.022 95.806ZM249.132 124.814C244.84 124.814 241.51 123.359 239.142 120.448C236.774 117.537 235.59 113.64 235.59 108.756C235.59 105.5 236.133 102.688 237.218 100.32C238.304 97.952 239.858 96.1267 241.88 94.844C243.903 93.5613 246.32 92.92 249.132 92.92C253.375 92.92 256.68 94.3507 259.048 97.212C261.466 100.073 262.674 103.921 262.674 108.756C262.674 112.012 262.132 114.849 261.046 117.266C260.01 119.683 258.481 121.558 256.458 122.89C254.436 124.173 251.994 124.814 249.132 124.814ZM249.132 117.636C250.119 117.636 250.933 117.34 251.574 116.748C252.265 116.156 252.783 115.194 253.128 113.862C253.523 112.53 253.72 110.828 253.72 108.756C253.72 105.648 253.301 103.428 252.462 102.096C251.673 100.715 250.563 100.024 249.132 100.024C248.146 100.024 247.307 100.32 246.616 100.912C245.975 101.504 245.457 102.441 245.062 103.724C244.717 105.007 244.544 106.684 244.544 108.756C244.544 111.963 244.939 114.257 245.728 115.638C246.518 116.97 247.652 117.636 249.132 117.636Z" fill="white"/>
<defs>
<linearGradient id="paint0_linear_185_3" x1="125.5" y1="10" x2="125.5" y2="241" gradientUnits="userSpaceOnUse">
<stop stop-color="#00FFFF"/>
<stop offset="1" stop-color="#2563EB"/>
</linearGradient>
</defs>
</svg>
