<svg width="98" height="74" viewBox="0 0 98 74" fill="none" xmlns="http://www.w3.org/2000/svg">
<path d="M82.7386 25.6742L77 25.6742V22L83.3103 22L83.6419 22.0258C84.8141 22.1167 85.9613 22.412 87.0317 22.8981L88.1457 23.5942C88.5349 23.8373 88.9024 24.1137 89.2439 24.4201C89.8686 24.9805 90.4008 25.6361 90.8207 26.3627L90.9774 26.6338C91.2047 27.0271 91.3879 27.4443 91.5235 27.8779C91.71 28.4738 91.8048 29.0945 91.8048 29.7189V30.4099H93.5038L89.8632 37.1051L86.0609 30.4099H88.0834V30.067C88.0834 29.6996 88.0197 29.335 87.8952 28.9893C87.8053 28.7398 87.6845 28.5025 87.5357 28.283L87.1623 27.7322C86.8621 27.2894 86.4827 26.9058 86.0431 26.6009C85.6267 26.3119 85.1629 26.0981 84.6728 25.9691L84.3405 25.8816C83.8177 25.7439 83.2792 25.6742 82.7386 25.6742Z" fill="url(#paint0_linear_154_50)" stroke="url(#paint1_linear_154_50)" stroke-width="3"/>
<path d="M49.4051 32.042V34.3408V54.8534V56.6217" stroke="url(#paint2_linear_154_50)" stroke-width="3"/>
<path d="M56.3017 36.1091H47.823C46.6894 36.1091 45.6071 36.5811 44.8358 37.4118V37.4118C44.1356 38.1658 43.7465 39.1566 43.7465 40.1856V40.4389C43.7465 41.506 44.2164 42.519 45.0309 43.2082V43.2082C45.6859 43.7625 46.5162 44.0666 47.3742 44.0666H50.2553C51.2961 44.0666 52.2943 44.4801 53.0303 45.216V45.216C53.7662 45.952 54.1797 46.9501 54.1797 47.9909V48.5404C54.1797 49.5383 53.8513 50.5084 53.2451 51.3011V51.3011C52.3852 52.4255 51.0505 53.0851 49.635 53.0851H42.3319" stroke="url(#paint3_linear_154_50)" stroke-width="3"/>
<path d="M4.95353 67.5183L13.4279 63.677H26.173L33.6835 67.5183L36.4413 68.9475C36.7208 69.0923 36.952 69.3156 37.1064 69.59C37.7131 70.6679 36.9342 72 35.6973 72H3.21324C1.88935 72 1.13365 70.4886 1.92798 69.4295C2.05669 69.2579 2.21845 69.1138 2.40374 69.0057L4.95353 67.5183Z" fill="url(#paint4_linear_154_50)" stroke="url(#paint5_linear_154_50)" stroke-width="3"/>
<path d="M12.0298 58.5545V56.6675C12.0298 52.3685 15.5148 48.8835 19.8138 48.8835C24.1128 48.8835 27.5978 52.3686 27.5978 56.6675V58.5545C27.5978 62.8535 24.1128 66.3385 19.8138 66.3385C15.5148 66.3385 12.0298 62.8535 12.0298 58.5545Z" fill="url(#paint6_linear_154_50)" stroke="url(#paint7_linear_154_50)" stroke-width="3"/>
<path d="M33.6299 22.0003L42.1043 18.1589H54.8493L62.3598 22.0003L65.1176 23.4294C65.3972 23.5742 65.6283 23.7976 65.7828 24.0719C66.3894 25.1498 65.6105 26.4819 64.3737 26.4819H31.8896C30.5657 26.4819 29.81 24.9705 30.6043 23.9114C30.733 23.7398 30.8948 23.5957 31.0801 23.4876L33.6299 22.0003Z" fill="url(#paint8_linear_154_50)" stroke="url(#paint9_linear_154_50)" stroke-width="3"/>
<path d="M40.7062 13.0365V11.1494C40.7062 6.85048 44.1912 3.36548 48.4902 3.36548C52.7892 3.36548 56.2742 6.85048 56.2742 11.1495V13.0365C56.2742 17.3354 52.7892 20.8204 48.4902 20.8204C44.1912 20.8204 40.7062 17.3354 40.7062 13.0365Z" fill="url(#paint10_linear_154_50)" stroke="url(#paint11_linear_154_50)" stroke-width="3"/>
<path d="M63.2167 67.5183L71.6911 63.677H84.4361L91.9466 67.5183L94.7044 68.9475C94.984 69.0923 95.2151 69.3156 95.3696 69.59C95.9762 70.6679 95.1973 72 93.9605 72H61.4764C60.1525 72 59.3968 70.4886 60.1911 69.4295C60.3198 69.2579 60.4816 69.1138 60.6669 69.0057L63.2167 67.5183Z" fill="url(#paint12_linear_154_50)" stroke="url(#paint13_linear_154_50)" stroke-width="3"/>
<path d="M70.293 58.5545V56.6675C70.293 52.3685 73.778 48.8835 78.077 48.8835C82.3759 48.8835 85.8609 52.3686 85.8609 56.6675V58.5545C85.8609 62.8535 82.3759 66.3385 78.077 66.3385C73.778 66.3385 70.293 62.8535 70.293 58.5545Z" fill="url(#paint14_linear_154_50)" stroke="url(#paint15_linear_154_50)" stroke-width="3"/>
<path d="M6.0354 32.8234V39.1261H2L2 32.1955L2.02828 31.8312C2.12822 30.5439 2.45249 29.2839 2.98643 28.1083L3.75088 26.8847C4.01793 26.4573 4.32144 26.0537 4.658 25.6785C5.27348 24.9925 5.99353 24.408 6.79151 23.9468L7.08929 23.7747C7.52126 23.525 7.9795 23.3239 8.45567 23.1749C9.11014 22.9701 9.79191 22.8659 10.4777 22.8659H11.2366V21L18.59 24.9984L11.2366 29.1745V26.9532H10.86C10.4565 26.9532 10.056 27.0231 9.6764 27.1599C9.40235 27.2586 9.14174 27.3913 8.90063 27.5547L8.29567 27.9649C7.80933 28.2946 7.38808 28.7113 7.05312 29.194C6.73579 29.6514 6.50094 30.1607 6.35922 30.699L6.26313 31.064C6.11194 31.6382 6.0354 32.2296 6.0354 32.8234Z" fill="url(#paint16_linear_154_50)" stroke="url(#paint17_linear_154_50)" stroke-width="3"/>
<path d="M57 3.04831C57 1.91706 57.9171 1 59.0483 1C60.1796 1 61.0966 1.91706 61.0966 3.04831C61.0966 4.17956 60.1796 5.09663 59.0483 5.09663C57.9171 5.09663 57 4.17956 57 3.04831Z" stroke="url(#paint18_linear_154_50)" stroke-width="2"/>
<defs>
<linearGradient id="paint0_linear_154_50" x1="93.5038" y1="29.5526" x2="77" y2="29.5526" gradientUnits="userSpaceOnUse">
<stop stop-color="#00FFFF"/>
<stop offset="1" stop-color="#2563EB"/>
</linearGradient>
<linearGradient id="paint1_linear_154_50" x1="93.5038" y1="29.5526" x2="77" y2="29.5526" gradientUnits="userSpaceOnUse">
<stop stop-color="#00FFFF"/>
<stop offset="1" stop-color="#2563EB"/>
</linearGradient>
<linearGradient id="paint2_linear_154_50" x1="49.9051" y1="32.042" x2="49.9051" y2="56.6217" gradientUnits="userSpaceOnUse">
<stop stop-color="#00FFFF"/>
<stop offset="1" stop-color="#2563EB"/>
</linearGradient>
<linearGradient id="paint3_linear_154_50" x1="49.3168" y1="36.1091" x2="49.3168" y2="53.0851" gradientUnits="userSpaceOnUse">
<stop stop-color="#00FFFF"/>
<stop offset="1" stop-color="#2563EB"/>
</linearGradient>
<linearGradient id="paint4_linear_154_50" x1="19.2315" y1="63.677" x2="19.2315" y2="72" gradientUnits="userSpaceOnUse">
<stop stop-color="#00FFFF"/>
<stop offset="1" stop-color="#2563EB"/>
</linearGradient>
<linearGradient id="paint5_linear_154_50" x1="6.25086" y1="63.9802" x2="6.25086" y2="72" gradientUnits="userSpaceOnUse">
<stop stop-color="#00FFFF"/>
<stop offset="1" stop-color="#2563EB"/>
</linearGradient>
<linearGradient id="paint6_linear_154_50" x1="19.8138" y1="48.8835" x2="19.8138" y2="66.3385" gradientUnits="userSpaceOnUse">
<stop stop-color="#00FFFF"/>
<stop offset="1" stop-color="#2563EB"/>
</linearGradient>
<linearGradient id="paint7_linear_154_50" x1="19.8138" y1="48.8835" x2="19.8138" y2="66.3385" gradientUnits="userSpaceOnUse">
<stop stop-color="#00FFFF"/>
<stop offset="1" stop-color="#2563EB"/>
</linearGradient>
<linearGradient id="paint8_linear_154_50" x1="47.9078" y1="18.1589" x2="47.9078" y2="26.4819" gradientUnits="userSpaceOnUse">
<stop stop-color="#00FFFF"/>
<stop offset="1" stop-color="#2563EB"/>
</linearGradient>
<linearGradient id="paint9_linear_154_50" x1="34.9272" y1="18.4621" x2="34.9272" y2="26.4819" gradientUnits="userSpaceOnUse">
<stop stop-color="#00FFFF"/>
<stop offset="1" stop-color="#2563EB"/>
</linearGradient>
<linearGradient id="paint10_linear_154_50" x1="48.4902" y1="3.36548" x2="48.4902" y2="20.8204" gradientUnits="userSpaceOnUse">
<stop stop-color="#00FFFF"/>
<stop offset="1" stop-color="#2563EB"/>
</linearGradient>
<linearGradient id="paint11_linear_154_50" x1="48.4902" y1="3.36548" x2="48.4902" y2="20.8204" gradientUnits="userSpaceOnUse">
<stop stop-color="#00FFFF"/>
<stop offset="1" stop-color="#2563EB"/>
</linearGradient>
<linearGradient id="paint12_linear_154_50" x1="77.4946" y1="63.677" x2="77.4946" y2="72" gradientUnits="userSpaceOnUse">
<stop stop-color="#00FFFF"/>
<stop offset="1" stop-color="#2563EB"/>
</linearGradient>
<linearGradient id="paint13_linear_154_50" x1="64.514" y1="63.9802" x2="64.514" y2="72" gradientUnits="userSpaceOnUse">
<stop stop-color="#00FFFF"/>
<stop offset="1" stop-color="#2563EB"/>
</linearGradient>
<linearGradient id="paint14_linear_154_50" x1="78.077" y1="48.8835" x2="78.077" y2="66.3385" gradientUnits="userSpaceOnUse">
<stop stop-color="#00FFFF"/>
<stop offset="1" stop-color="#2563EB"/>
</linearGradient>
<linearGradient id="paint15_linear_154_50" x1="78.077" y1="48.8835" x2="78.077" y2="66.3385" gradientUnits="userSpaceOnUse">
<stop stop-color="#00FFFF"/>
<stop offset="1" stop-color="#2563EB"/>
</linearGradient>
<linearGradient id="paint16_linear_154_50" x1="10.295" y1="21" x2="10.295" y2="39.1261" gradientUnits="userSpaceOnUse">
<stop stop-color="#00FFFF"/>
<stop offset="1" stop-color="#2563EB"/>
</linearGradient>
<linearGradient id="paint17_linear_154_50" x1="10.295" y1="21" x2="10.295" y2="39.1261" gradientUnits="userSpaceOnUse">
<stop stop-color="#00FFFF"/>
<stop offset="1" stop-color="#2563EB"/>
</linearGradient>
<linearGradient id="paint18_linear_154_50" x1="59.0483" y1="1" x2="59.0483" y2="5.09663" gradientUnits="userSpaceOnUse">
<stop stop-color="#00FFFF"/>
<stop offset="1" stop-color="#2563EB"/>
</linearGradient>
</defs>
</svg>
