<svg width="27" height="27" viewBox="0 0 27 27" fill="none" xmlns="http://www.w3.org/2000/svg">
<path fill-rule="evenodd" clip-rule="evenodd" d="M27 13.5C27 20.9558 20.9558 27 13.5 27C6.04416 27 0 20.9558 0 13.5C0 6.04416 6.04416 0 13.5 0C20.9558 0 27 6.04416 27 13.5ZM20.9361 5.76895C21.504 6.37208 21.4754 7.3214 20.8723 7.88931L15.2449 13.1882L20.5438 18.8157C21.1117 19.4188 21.0832 20.3682 20.48 20.9361C19.8769 21.504 18.9276 21.4754 18.3597 20.8723L13.0607 15.2448L7.43322 20.5437C6.83009 21.1117 5.88077 21.0831 5.31286 20.48C4.74495 19.8768 4.77349 18.9275 5.37662 18.3596L11.0041 13.0607L5.70525 7.43322C5.13733 6.83009 5.16588 5.88077 5.76901 5.31286C6.37214 4.74494 7.32146 4.77349 7.88937 5.37662L13.1883 11.0041L18.8157 5.70519C19.4188 5.13727 20.3682 5.16582 20.9361 5.76895Z" fill="white"/>
</svg>
