<svg width="27" height="27" viewBox="0 0 27 27" fill="none" xmlns="http://www.w3.org/2000/svg">
<path fill-rule="evenodd" clip-rule="evenodd" d="M13.5 27C20.9558 27 27 20.9558 27 13.5C27 6.04416 20.9558 0 13.5 0C6.04416 0 0 6.04416 0 13.5C0 20.9558 6.04416 27 13.5 27ZM14.8745 4.77315C14.07 3.54533 12.2611 3.57353 11.4953 4.82583L4.07737 16.9566C3.26243 18.2893 4.22153 20 5.78364 20H21.1493C22.7395 20 23.6937 18.234 22.8222 16.9039L14.8745 4.77315ZM13.2016 5.8692L21.1493 18L5.78364 18L13.2016 5.8692ZM13.22 8.5C13.7723 8.5 14.22 8.94771 14.22 9.5V13.5C14.22 14.0523 13.7723 14.5 13.22 14.5C12.6677 14.5 12.22 14.0523 12.22 13.5V9.5C12.22 8.94771 12.6677 8.5 13.22 8.5ZM14.22 16C14.22 15.4477 13.7723 15 13.22 15C12.6677 15 12.22 15.4477 12.22 16V16.1103C12.22 16.6626 12.6677 17.1103 13.22 17.1103C13.7723 17.1103 14.22 16.6626 14.22 16.1103V16Z" fill="white"/>
</svg>
