<svg width="27" height="27" viewBox="0 0 27 27" fill="none" xmlns="http://www.w3.org/2000/svg">
<path fill-rule="evenodd" clip-rule="evenodd" d="M13.5 27C20.9558 27 27 20.9558 27 13.5C27 6.04416 20.9558 0 13.5 0C6.04416 0 0 6.04416 0 13.5C0 20.9558 6.04416 27 13.5 27ZM22.9499 10.1609C23.591 9.63634 23.6855 8.69131 23.1609 8.05014C22.6363 7.40898 21.6913 7.31447 21.0501 7.83906L11.2465 15.8602L7.18894 10.5854C6.68384 9.9288 5.74206 9.80596 5.08543 10.3111C4.4288 10.8162 4.30596 11.7579 4.81106 12.4146L9.81106 18.9146C10.0584 19.2361 10.4254 19.4437 10.8283 19.4901C11.2313 19.5366 11.6359 19.4178 11.9499 19.1609L22.9499 10.1609Z" fill="white"/>
</svg>
