<svg width="85" height="69" viewBox="0 0 85 69" fill="none" xmlns="http://www.w3.org/2000/svg">
<path d="M31 33V25H69.5V20L84.5 30L69.5 38L69.5 33H31Z" fill="white"/>
<path fill-rule="evenodd" clip-rule="evenodd" d="M62.0592 43C63.0966 40.1661 63.7446 37.1445 63.9385 34H47.56C47.1162 37.487 45.5277 40.6166 43.183 43H62.0592ZM32 64V47.6863C23.3367 47.6863 16.3137 40.6633 16.3137 32C16.3137 23.3367 23.3367 16.3137 32 16.3137C37.7411 16.3137 42.7619 19.398 45.4958 24H62.9919C59.4395 10.1982 46.9107 0 32 0C14.3269 0 0 14.3269 0 32C0 49.6731 14.3269 64 32 64Z" fill="url(#paint0_linear_9_2)"/>
<path d="M37.8304 64.216C37.2704 64.216 36.8384 64.064 36.5344 63.76C36.2464 63.44 36.1024 62.992 36.1024 62.416V48.736C36.1024 48.128 36.2464 47.664 36.5344 47.344C36.8384 47.024 37.2384 46.864 37.7344 46.864C38.1664 46.864 38.4944 46.952 38.7184 47.128C38.9584 47.288 39.2304 47.56 39.5344 47.944L47.9584 58.672H47.3104V48.64C47.3104 48.08 47.4544 47.648 47.7424 47.344C48.0464 47.024 48.4784 46.864 49.0384 46.864C49.5984 46.864 50.0224 47.024 50.3104 47.344C50.6144 47.648 50.7664 48.08 50.7664 48.64V62.488C50.7664 63.016 50.6304 63.44 50.3584 63.76C50.0864 64.064 49.7184 64.216 49.2544 64.216C48.8064 64.216 48.4464 64.128 48.1744 63.952C47.9184 63.776 47.6384 63.496 47.3344 63.112L38.9344 52.384H39.5584V62.416C39.5584 62.992 39.4144 63.44 39.1264 63.76C38.8384 64.064 38.4064 64.216 37.8304 64.216ZM56.0688 64.216C55.4608 64.216 54.9888 64.048 54.6528 63.712C54.3328 63.376 54.1728 62.888 54.1728 62.248V49.024C54.1728 48.4 54.3408 47.92 54.6768 47.584C55.0128 47.248 55.4928 47.08 56.1168 47.08H64.3248C64.8048 47.08 65.1648 47.208 65.4048 47.464C65.6608 47.704 65.7888 48.056 65.7888 48.52C65.7888 49 65.6608 49.368 65.4048 49.624C65.1648 49.864 64.8048 49.984 64.3248 49.984H57.8928V54.112H63.7968C64.2768 54.112 64.6448 54.24 64.9008 54.496C65.1568 54.736 65.2848 55.088 65.2848 55.552C65.2848 56.016 65.1568 56.376 64.9008 56.632C64.6448 56.888 64.2768 57.016 63.7968 57.016H57.8928V62.248C57.8928 63.56 57.2848 64.216 56.0688 64.216ZM74.0455 64.216C73.4375 64.216 72.9735 64.048 72.6535 63.712C72.3335 63.376 72.1735 62.904 72.1735 62.296V50.152H67.9255C67.4295 50.152 67.0455 50.016 66.7735 49.744C66.5015 49.472 66.3655 49.096 66.3655 48.616C66.3655 48.12 66.5015 47.744 66.7735 47.488C67.0455 47.216 67.4295 47.08 67.9255 47.08H80.1415C80.6375 47.08 81.0215 47.216 81.2935 47.488C81.5655 47.744 81.7015 48.12 81.7015 48.616C81.7015 49.096 81.5655 49.472 81.2935 49.744C81.0215 50.016 80.6375 50.152 80.1415 50.152H75.8935V62.296C75.8935 62.904 75.7335 63.376 75.4135 63.712C75.1095 64.048 74.6535 64.216 74.0455 64.216Z" fill="white"/>
<defs>
<linearGradient id="paint0_linear_9_2" x1="31.9693" y1="0" x2="31.9693" y2="64" gradientUnits="userSpaceOnUse">
<stop stop-color="#00FFFF"/>
<stop offset="1" stop-color="#2563EB"/>
</linearGradient>
</defs>
</svg>
