<svg width="57" height="70" viewBox="0 0 57 70" fill="none" xmlns="http://www.w3.org/2000/svg">
<path d="M8 34.8282L10.0955 37.2897C10.8709 38.2005 12.2671 38.2315 13.0822 37.3561L19 31" stroke="url(#paint0_linear_160_137)" stroke-width="3" stroke-linecap="round"/>
<path fill-rule="evenodd" clip-rule="evenodd" d="M0 13V57C0 64.1797 5.8203 70 13 70H44C51.1797 70 57 64.1797 57 57V13C57 5.8203 51.1797 0 44 0H13C5.8203 0 0 5.8203 0 13ZM43.9225 51.2397C39.8231 51.2397 36.4999 54.563 36.4999 58.6624C36.4999 62.7618 39.8231 66.085 43.9225 66.085H44.4302C48.5296 66.085 51.8528 62.7618 51.8528 58.6624C51.8528 54.563 48.5296 51.2397 44.4302 51.2397H43.9225ZM39.4999 58.6624C39.4999 56.2198 41.48 54.2397 43.9225 54.2397H44.4302C46.8727 54.2397 48.8528 56.2198 48.8528 58.6624C48.8528 61.1049 46.8727 63.085 44.4302 63.085H43.9225C41.48 63.085 39.4999 61.1049 39.4999 58.6624ZM3 34.5C3 28.701 7.70101 24 13.5 24C19.299 24 24 28.701 24 34.5C24 40.299 19.299 45 13.5 45C7.70101 45 3 40.299 3 34.5ZM8 7.5C7.17157 7.5 6.5 8.17157 6.5 9C6.5 9.82843 7.17157 10.5 8 10.5H40C40.8284 10.5 41.5 9.82843 41.5 9C41.5 8.17157 40.8284 7.5 40 7.5H8ZM24.5 22C24.5 21.1716 25.1716 20.5 26 20.5H50.3316C51.16 20.5 51.8316 21.1716 51.8316 22C51.8316 22.8284 51.16 23.5 50.3316 23.5H26C25.1716 23.5 24.5 22.8284 24.5 22ZM26 25.3662C25.1716 25.3662 24.5 26.0378 24.5 26.8662C24.5 27.6946 25.1716 28.3662 26 28.3662H50.3316C51.16 28.3662 51.8316 27.6946 51.8316 26.8662C51.8316 26.0378 51.16 25.3662 50.3316 25.3662H26ZM29.1792 31.7327C29.1792 30.9042 29.8508 30.2327 30.6792 30.2327H50.3316C51.16 30.2327 51.8316 30.9042 51.8316 31.7327C51.8316 32.5611 51.16 33.2327 50.3316 33.2327H30.6792C29.8508 33.2327 29.1792 32.5611 29.1792 31.7327ZM8 57.5C7.17157 57.5 6.5 58.1716 6.5 59C6.5 59.8284 7.17157 60.5 8 60.5H29C29.8284 60.5 30.5 59.8284 30.5 59C30.5 58.1716 29.8284 57.5 29 57.5H8Z" fill="url(#paint1_linear_160_137)"/>
<defs>
<linearGradient id="paint0_linear_160_137" x1="13.5" y1="31" x2="13.5" y2="39" gradientUnits="userSpaceOnUse">
<stop stop-color="#00FFFF"/>
<stop offset="1" stop-color="#2563EB"/>
</linearGradient>
<linearGradient id="paint1_linear_160_137" x1="16.2857" y1="3.33333" x2="16.2857" y2="90" gradientUnits="userSpaceOnUse">
<stop stop-color="#00FFFF"/>
<stop offset="1" stop-color="#2563EB"/>
</linearGradient>
</defs>
</svg>
