<svg width="48" height="48" viewBox="0 0 48 48" fill="none" xmlns="http://www.w3.org/2000/svg">
<path d="M15.095 43.5013C33.2083 43.5013 43.1155 28.4946 43.1155 15.4808C43.1155 15.0546 43.1155 14.6302 43.0867 14.2078C45.0141 12.8137 46.6778 11.0876 48 9.11024C46.2028 9.90704 44.2961 10.4293 42.3437 10.6597C44.3996 9.42905 45.9383 7.49324 46.6733 5.21264C44.7402 6.35985 42.6253 7.16829 40.4198 7.60304C38.935 6.02419 36.9712 4.97872 34.8324 4.6284C32.6935 4.27809 30.4988 4.64247 28.5879 5.66514C26.677 6.68782 25.1564 8.31178 24.2615 10.2857C23.3665 12.2597 23.1471 14.4736 23.6371 16.5848C19.7218 16.3884 15.8915 15.3709 12.3949 13.5982C8.89831 11.8256 5.81353 9.33756 3.3408 6.29552C2.08146 8.46351 1.69574 11.03 2.2622 13.4724C2.82865 15.9147 4.30468 18.0494 6.38976 19.4418C4.82246 19.3958 3.2893 18.973 1.92 18.2091V18.3339C1.92062 20.6076 2.7077 22.8111 4.14774 24.5707C5.58778 26.3302 7.59212 27.5375 9.8208 27.9877C8.37096 28.3832 6.84975 28.441 5.37408 28.1566C6.00363 30.1133 7.22886 31.8243 8.87848 33.0505C10.5281 34.2767 12.5197 34.9568 14.5747 34.9957C12.5329 36.6006 10.1946 37.7873 7.69375 38.4877C5.19287 39.1881 2.57843 39.3886 0 39.0776C4.50367 41.9676 9.74385 43.5006 15.095 43.4936" fill="#1DA1F2"/>
</svg>
